<?xml version="1.0" encoding="utf-8"?>
<!-- Generator: Adobe Illustrator 19.2.1, SVG Export Plug-In . SVG Version: 6.00 Build 0)  -->
<svg version="1.1" id="_x37_c461a90-2dc0-438f-aafa-67f60829e3f3"
	 xmlns="http://www.w3.org/2000/svg" xmlns:xlink="http://www.w3.org/1999/xlink" x="0px" y="0px" viewBox="0 0 168.7 211.1"
	 style="enable-background:new 0 0 168.7 211.1;" xml:space="preserve">
<style type="text/css">
	.st0{fill:none;}
	.st1{fill:#5EA0D6;}
	.st2{fill:#5594CE;}
	.st3{fill:#4787C6;}
	.st4{fill:#3F74B8;}
	.st5{fill:#7FB4E1;}
	.st6{fill:#414042;}
	.st7{fill:#58595B;}
	.st8{fill:#808285;}
	.st9{fill:#939598;}
	.st10{fill:url(#SVGID_1_);}
	.st11{fill:url(#SVGID_2_);}
	.st12{fill:url(#SVGID_3_);}
	.st13{fill:url(#SVGID_4_);}
	.st14{fill:#A1CCED;}
	.st15{fill:url(#SVGID_5_);}
	.st16{fill:url(#SVGID_6_);}
	.st17{fill:url(#SVGID_7_);}
	.st18{fill:url(#SVGID_8_);}
</style>
<title>logo</title>
<polygon class="st0" points="14.3,34.5 14.2,34.5 14.3,146.7 14.3,130 "/>
<polygon class="st1" points="42.3,57.3 42.3,33.3 28.3,22.2 28.3,45.9 "/>
<polygon class="st2" points="56.3,68.7 56.3,44.3 42.3,33.3 42.3,57.3 "/>
<polygon class="st3" points="70.3,80 70.3,55.4 56.3,44.3 56.3,68.7 "/>
<polygon class="st4" points="84.3,91.4 84.3,66.4 70.3,55.4 70.3,80 "/>
<polygon class="st5" points="28.3,45.9 28.3,22.2 14.3,11.2 14.3,34.5 "/>
<polygon class="st6" points="70.3,145.7 56.3,114 56.3,148.6 69.9,180.5 70.3,180.8 "/>
<polygon points="70.3,180.8 84.3,193.6 84.3,179.2 70.3,145.7 "/>
<polygon class="st7" points="42.3,115.8 56.3,148.6 56.3,114 42.3,82.4 "/>
<polygon class="st8" points="38.8,74.5 28.3,67.5 28.3,82.9 42.3,115.8 42.3,82.4 "/>
<polygon class="st6" points="98.3,145.7 112.4,114 112.4,148.6 98.8,180.5 98.3,180.8 "/>
<polygon points="98.3,180.8 84.3,193.6 84.3,179.2 98.3,145.7 "/>
<polygon class="st7" points="126.4,115.8 112.4,148.6 112.4,114 126.4,82.4 "/>
<polygon class="st8" points="129.9,74.5 140.4,67.5 140.4,82.9 126.4,115.8 126.4,82.4 "/>
<polygon points="70.3,180.9 70.3,198.2 84.3,211.1 84.3,193.6 "/>
<polygon class="st8" points="28.3,142.7 28.3,159.6 42.3,172.5 42.3,155.4 "/>
<polygon class="st6" points="69.9,180.5 69.9,180.5 56.3,168.1 56.3,185.3 70.3,198.2 70.3,180.9 "/>
<polygon class="st7" points="42.3,155.4 42.3,172.5 56.3,185.3 56.3,168.1 "/>
<polygon class="st9" points="14.3,130 14.3,146.7 28.3,159.6 28.3,142.7 "/>
<linearGradient id="SVGID_1_" gradientUnits="userSpaceOnUse" x1="79.5613" y1="16.0107" x2="-601.3387" y2="1265.7808" gradientTransform="matrix(1 0 0 -1 0 214)">
	<stop  offset="0" style="stop-color:#000000"/>
	<stop  offset="1" style="stop-color:#FFFFFF"/>
</linearGradient>
<polygon class="st10" points="69.9,180.5 69.9,180.5 70.3,180.9 70.3,180.8 "/>
<linearGradient id="SVGID_2_" gradientUnits="userSpaceOnUse" x1="79.5613" y1="16.0107" x2="-601.3387" y2="1265.7808" gradientTransform="matrix(1 0 0 -1 0 214)">
	<stop  offset="0" style="stop-color:#000000"/>
	<stop  offset="1" style="stop-color:#FFFFFF"/>
</linearGradient>
<polygon class="st11" points="69.9,180.5 69.9,180.5 70.3,180.9 70.3,180.8 "/>
<linearGradient id="SVGID_3_" gradientUnits="userSpaceOnUse" x1="82.37" y1="17.54" x2="-598.53" y2="1267.3101" gradientTransform="matrix(1 0 0 -1 0 214)">
	<stop  offset="0" style="stop-color:#000000"/>
	<stop  offset="1" style="stop-color:#FFFFFF"/>
</linearGradient>
<polygon class="st12" points="70.3,180.9 84.3,193.6 70.3,180.8 "/>
<linearGradient id="SVGID_4_" gradientUnits="userSpaceOnUse" x1="82.37" y1="17.54" x2="-598.53" y2="1267.3101" gradientTransform="matrix(1 0 0 -1 0 214)">
	<stop  offset="0" style="stop-color:#000000"/>
	<stop  offset="1" style="stop-color:#FFFFFF"/>
</linearGradient>
<polygon class="st13" points="70.3,180.9 84.3,193.6 70.3,180.8 "/>
<polygon class="st0" points="154.4,34.5 154.5,34.5 154.4,146.7 154.4,130 "/>
<polygon class="st1" points="126.4,57.3 126.4,33.3 140.4,22.2 140.4,45.9 "/>
<polygon class="st2" points="112.4,68.7 112.4,44.3 126.4,33.3 126.4,57.3 "/>
<polygon class="st3" points="98.3,80 98.3,55.4 112.4,44.3 112.4,68.7 "/>
<polygon class="st14" points="14.3,34.5 14.3,11.2 0.1,0 0,133.7 14.3,146.7 14.2,34.5 "/>
<polygon class="st14" points="154.4,34.5 154.4,11.2 168.6,0 168.7,133.7 154.4,146.7 154.5,34.5 "/>
<polygon class="st4" points="84.3,91.4 84.3,66.4 98.3,55.4 98.3,80 "/>
<polygon class="st5" points="140.4,45.9 140.4,22.2 154.4,11.2 154.4,34.5 "/>
<polygon points="98.3,180.9 98.3,198.2 84.3,211.1 84.3,193.6 "/>
<polygon class="st8" points="140.4,142.7 140.4,159.6 126.4,172.5 126.4,155.4 "/>
<polygon class="st6" points="98.8,180.5 98.8,180.5 112.4,168.1 112.4,185.3 98.3,198.2 98.3,180.9 "/>
<polygon class="st7" points="126.4,155.4 126.4,172.5 112.4,185.3 112.4,168.1 "/>
<polygon class="st9" points="154.4,130 154.4,146.7 140.4,159.6 140.4,142.7 "/>
<linearGradient id="SVGID_5_" gradientUnits="userSpaceOnUse" x1="-514.8387" y1="16.0107" x2="-1195.7386" y2="1265.7808" gradientTransform="matrix(-1 0 0 -1 -425.73 214)">
	<stop  offset="0" style="stop-color:#000000"/>
	<stop  offset="1" style="stop-color:#FFFFFF"/>
</linearGradient>
<polygon class="st15" points="98.8,180.5 98.8,180.5 98.3,180.9 98.3,180.8 "/>
<linearGradient id="SVGID_6_" gradientUnits="userSpaceOnUse" x1="-514.8387" y1="16.0107" x2="-1195.7386" y2="1265.7808" gradientTransform="matrix(-1 0 0 -1 -425.73 214)">
	<stop  offset="0" style="stop-color:#000000"/>
	<stop  offset="1" style="stop-color:#FFFFFF"/>
</linearGradient>
<polygon class="st16" points="98.8,180.5 98.8,180.5 98.3,180.9 98.3,180.8 "/>
<linearGradient id="SVGID_7_" gradientUnits="userSpaceOnUse" x1="-512.0261" y1="17.5421" x2="-1192.9261" y2="1267.3121" gradientTransform="matrix(-1 0 0 -1 -425.73 214)">
	<stop  offset="0" style="stop-color:#000000"/>
	<stop  offset="1" style="stop-color:#FFFFFF"/>
</linearGradient>
<polygon class="st17" points="98.3,180.9 84.3,193.6 98.3,180.8 "/>
<linearGradient id="SVGID_8_" gradientUnits="userSpaceOnUse" x1="-512.0261" y1="17.5421" x2="-1192.9261" y2="1267.3121" gradientTransform="matrix(-1 0 0 -1 -425.73 214)">
	<stop  offset="0" style="stop-color:#000000"/>
	<stop  offset="1" style="stop-color:#FFFFFF"/>
</linearGradient>
<polygon class="st18" points="98.3,180.9 84.3,193.6 98.3,180.8 "/>
</svg>
